<svg xmlns="http://www.w3.org/2000/svg" xmlns:xlink="http://www.w3.org/1999/xlink" version="1.1" id="Your_Icon" x="0px" y="0px" width="100px" height="100px" viewBox="0 0 100 100" enable-background="new 0 0 100 100" xml:space="preserve">
<g>
	<path fill="#000000" d="M38.169,62.676L34.94,59.45l-3.227,3.226l-4.07-4.07l3.227-3.228l-3.227-3.228l4.07-4.071l3.227,3.228   l3.229-3.228l4.07,4.071l-3.227,3.228l3.227,3.228L38.169,62.676z M34.941,57.76l3.229,3.229l2.381-2.384l-3.227-3.228l3.227-3.228   l-2.381-2.381l-3.229,3.227l-3.227-3.227l-2.383,2.381l3.229,3.228l-3.229,3.228l2.383,2.384L34.941,57.76z"/>
	<path fill="#000000" d="M53.227,62.676L50,59.45l-3.227,3.226l-4.072-4.07l3.229-3.228l-3.229-3.228l4.072-4.071L50,51.307   l3.227-3.227l4.072,4.07l-3.227,3.229l3.227,3.227L53.227,62.676z M50,57.76l3.227,3.229l2.383-2.384l-3.227-3.228l3.227-3.228   l-2.383-2.381L50,52.996l-3.227-3.227l-2.381,2.381l3.227,3.228l-3.227,3.228l2.381,2.384L50,57.76z"/>
	<path fill="#000000" d="M68.285,62.676l-3.227-3.226l-3.229,3.226l-4.068-4.07l3.225-3.228l-3.225-3.228l4.068-4.071l3.229,3.228   l3.227-3.228l4.072,4.071l-3.229,3.228l3.229,3.228L68.285,62.676z M65.059,57.76l3.229,3.229l2.383-2.384l-3.229-3.228   l3.229-3.228l-2.383-2.381l-3.229,3.227l-3.227-3.227l-2.381,2.381l3.227,3.228l-3.227,3.228l2.381,2.384L65.059,57.76z"/>
</g>
<path fill="#000000" d="M71.871,44.98H28.13v-2.868h43.741V44.98z M28.845,44.263h42.309v-1.434H28.845V44.263z"/>
<path fill="#000000" d="M71.871,68.645H28.13v-2.869h43.741V68.645z M28.845,67.927h42.309v-1.435H28.845V67.927z"/>
<path fill="#000000" d="M40.796,1v5.498h18.407V1H40.796z M46.056,2.195h1.434v3.107h-1.434V2.195z M45.339,5.302h-1.433V2.195  h1.433V5.302z M48.209,2.195h1.433v3.107h-1.433V2.195z M50.359,2.195h1.434v3.107h-1.434V2.195z M52.51,2.195h1.436v3.107H52.51  V2.195z M54.662,2.195h1.434v3.107h-1.434V2.195z M41.994,2.195h1.193v3.107h-1.193V2.195z M58.008,5.302h-1.195V2.195h1.195V5.302z  "/>
<path fill="#000000" d="M65.059,27.771c-2.57,0-4.66-2.091-4.66-4.661c0-2.57,2.09-4.661,4.66-4.661s4.66,2.091,4.66,4.661  C69.719,25.68,67.629,27.771,65.059,27.771z M65.059,19.166c-2.174,0-3.941,1.77-3.941,3.944c0,2.174,1.771,3.943,3.941,3.943  c2.174,0,3.945-1.769,3.945-3.943C69.004,20.936,67.232,19.166,65.059,19.166z"/>
<path fill="#000000" d="M67.211,99h-34.42c-5.074,0-9.203-4.128-9.203-9.202V42.471c0-10.805,8.633-19.632,19.361-19.95V9.605  h14.102v8.973c1.584-2.787,4.58-4.671,8.008-4.671c5.074,0,9.203,4.128,9.203,9.203c0,2.944-1.371,5.652-3.703,7.385  c3.729,3.727,5.854,8.834,5.854,14.127v45.176C76.412,94.872,72.285,99,67.211,99z M43.546,23.708  c-10.346,0-18.764,8.417-18.764,18.763v47.327c0,4.415,3.592,8.009,8.008,8.009h34.42c4.414,0,8.006-3.594,8.006-8.009V44.622  c0-5.21-2.188-10.229-6.008-13.767l-0.571-0.531l0.661-0.414c2.359-1.474,3.769-4.016,3.769-6.8c0-4.415-3.592-8.007-8.008-8.007  c-4.414,0-8.009,3.592-8.009,8.007h-1.192V10.8H44.144v12.907L43.546,23.708L43.546,23.708z"/>
<path fill="#000000" d="M60.758,7.453H39.244c-1.516,0-2.748,1.234-2.748,2.749c0,1.516,1.232,2.749,2.748,2.749  c1.515,0,2.75-1.233,2.75-2.749c0-0.577-0.18-1.111-0.485-1.554h16.984c-0.306,0.443-0.485,0.978-0.485,1.554  c0,1.516,1.232,2.749,2.75,2.749c1.516,0,2.748-1.233,2.748-2.749C63.506,8.686,62.273,7.453,60.758,7.453z M39.244,11.756  c-0.856,0-1.553-0.697-1.553-1.554c0-0.856,0.698-1.553,1.553-1.553c0.857,0,1.552,0.697,1.553,1.553  C40.797,11.059,40.101,11.756,39.244,11.756z M60.758,11.756c-0.857,0-1.555-0.697-1.555-1.554c0-0.856,0.697-1.553,1.555-1.553  c0.855,0,1.553,0.697,1.553,1.553C62.311,11.059,61.613,11.756,60.758,11.756z"/>
</svg>